<svg xmlns="http://www.w3.org/2000/svg" width="2584" height="1421" viewBox="0 0 2584 1421">
  <defs>
    <style>
      .cls-1 {
        fill: #000007;
      }

      .cls-1, .cls-2 {
        fill-rule: evenodd;
      }

      .cls-2 {
        fill: #f5c500;
      }
    </style>
  </defs>
  <path id="Shape_317_1" data-name="Shape 317 1" class="cls-1" d="M2558.36,1042.7q-69.84,148.59-117.58,148.6-34.485,0-52.16-14.16-6.2-6.165-6.19-31.4,0-25.2,1.77-67.66-23.01,57.51-45.53,85.35-22.545,27.87-57.91,27.87t-61.89-33.17q-26.52-33.18-26.52-104.37t40.23-126.048q40.215-54.832,105.65-54.839,28.275,0,63.65,37.149,7.065-9.723,25.2-23.44,18.105-13.7,30.94-13.709,12.81,0,12.82,33.611,0,8.851-4.86,34.5-4.875,25.665-11.05,37.149-7.965,20.358-7.96,144.171,0,23.9,5.3,23.89,15.03-.87,41.56-37.59,26.52-36.7,52.6-94.21,26.07-57.48,31.83-57.489,5.73,0,5.74,7.076Q2584,988.751,2558.36,1042.7ZM2367.84,921.078q-19.89-12.811-34.92-12.825-24.765,0-52.6,36.707-27.855,36.714-27.85,86.24,0,49.545,14.59,81.38t38.45,31.84q29.175,0,85.76-145.947,0.87-7.069,2.21-24.324t2.21-26.093Q2387.74,933.917,2367.84,921.078ZM2205.61,1222.25q0,12.39-16.8,18.58t-38.01,6.19q-39.78,0-66.75-31.84-26.985-31.845-74.71-117.64-11.49-18.57-11.49-28.31,0-13.26,37.13-30.95,60.12-30.96,60.12-77.841a30.708,30.708,0,0,0-9.28-22.555q-9.285-9.287-24.32-9.287-21.21,0-50.39,49.975t-39.34,93.758q-10.17,43.785-10.17,94.2,0,24.78-14.14,24.77a130.741,130.741,0,0,1-38.9-5.75q-18.57-5.745-18.57-15.04t7.07-84.03c0.05-.46.09-0.89,0.13-1.35q-56.145,106.155-96.49,106.17a125.282,125.282,0,0,1-35.81-4.87q-16.365-4.845-19.89-9.29-7.95-9.54-8.75-90.95-3.045,5.16-6.28,10.46-58.35,94.665-144.11,94.65-49.515,0-78.68-37.59a135.057,135.057,0,0,1-27.07-60.73q-53.46,98.31-92.28,98.32-34.485,0-52.17-14.16-6.2-6.165-6.19-32.28,0-26.085,4.87-84.91,4.845-58.815,4.86-88.012,0-29.188-10.17-29.189t-53.48,60.591q-43.335,60.6-45.98,77.39a347.274,347.274,0,0,0-5.3,58.38l0.88,27.42q0,24.78-14.14,24.77a142.776,142.776,0,0,1-40.67-5.75q-19.455-5.745-19.45-15.92t4.86-69.88q0.9-11.1,1.64-21.18c-3.77,6.66-7.26,12.56-10.48,17.64a356.964,356.964,0,0,1-34.92,45.55q-44.22,49.56-110.51,49.54-50.4,0-76.478-35.83t-26.081-76.51q0-100.83,43.763-153.459t110.956-52.628q28.275,0,44.64,14.594t16.36,33.169q0,34.5-12.38,51.3t-30.06,16.806q-15.045,0-15.03-16.806l7.08-45.11a28.234,28.234,0,0,0-6.19-17.69,19.3,19.3,0,0,0-15.92-7.961q-32.715,0-56.577,49.09t-23.871,94.2q0,45.1,18.566,72.97t45.532,27.86q26.955,0,48.18-12.38t38.9-35.38a495.4,495.4,0,0,0,47.59-76.29c0.1-4.05.15-7.82,0.15-11.28v-51.3q0-226.421,80.46-288.351,18.555-14.137,38.01-14.152,8.835,0,17.68,19.459t8.84,50.417q0,76.083-25.63,142.407-25.665,66.339-52.17,101.719-0.885,22.119-.88,68.991,3.525-5.31,37.13-60.146,33.585-54.833,57.03-80.491,23.415-25.644,41.99-25.65a49.821,49.821,0,0,1,33.15,12.383q14.6,12.4,14.59,30.958,0,38.932-8.4,114.546-8.415,75.63-8.4,95.53,0,19.89,5.31,19.9,15.015-.87,41.55-37.59,18.99-26.28,37.75-63.24,4.395-79.494,40.05-122.955,40.65-49.525,105.21-49.532,30.045,0,49.51,16.363,19.44,16.377,19.45,44.668,0,53.07-44.65,88.9t-109.18,37.59q3.51,34.5,23.42,59.7,19.9,25.215,46.42,25.21t47.74-12.38q21.225-12.375,38.9-35.38a488.311,488.311,0,0,0,41.23-64.12q2.97-93.174,21.54-236.616,18.57-140.637,86.64-140.637,15.915,0,22.99,17.248t7.07,33.169q0,114.995-69.84,257.393-2.655,73.43-2.66,127.813t9.73,54.4q15.03-.87,41.55-37.59,24.6-34.035,48.82-85.98,2.01-27.12,2.46-43.606,3.525-180.441,21.22-275.968,2.655-7.961,24.31-27.42,21.66-19.444,34.92-19.459t12.82,33.169q-0.45,33.169-14.59,141.964t-17.68,199.02a356.382,356.382,0,0,1,50.84-107.03q34.905-50.418,70.28-50.417,60.12,0,60.12,58.377a116.228,116.228,0,0,1-22.98,70.32q-23.01,31.41-61.89,50.86-7.965,3.54-7.96,7.96a17.074,17.074,0,0,0,2.65,8.84q55.71,98.19,94.6,137.99,10.605,10.6,22.99,10.61l23.87-2.65Q2205.605,1215.18,2205.61,1222.25ZM1281.73,745.5q0-37.151-9.72-37.15-15.915,0-30.94,98.181-7.965,52.2-11.5,121.178Q1281.725,818.917,1281.73,745.5Zm333.75,260.047q24.3-24.753,24.31-64.57t-25.64-39.8q-30.945,0-52.16,42.9t-22.98,95.084Q1591.165,1030.325,1615.48,1005.55Zm237.38-291q0-28.3-7.07-28.3-26.535,0-38.9,220.244Q1852.835,785.313,1852.86,714.545ZM941.73,828.116q-94.157,0-94.156-39.8,0-11.486,12.819-15.037a308.26,308.26,0,0,1,32.269-6.634,413.973,413.973,0,0,0,42.437-9.287q22.98-6.177,42.436-23,45.083-38.911,45.085-130.024,0-58.377-39.338-89.335T870.118,484.041q-73.829,0-138.361,30.958-23.869,11.5-42.878,21.228-19.022,9.744-34.922,9.73t-15.914-9.73q0-15.03,29.176-49.533,29.175-31.842,92.387-59.262a330.928,330.928,0,0,1,133.056-27.42q131.724-.872,205.108,61.916,63.66,54.854,63.66,141.964,0,87.132-62.77,155.674Q1035.87,828.123,941.73,828.116ZM677.749,591.642c28.076,19.443,53.844,41.254,75.738,65.007,30.825,242.413-62.115,369.821-129.17,428.441-28.07-13.5-59.895-28.1-96-44.04C676.839,894.759,687.277,703.007,677.749,591.642Zm-54.075,564.6c-0.66,2.17-1.561,4.29-2.516,6.74-57.7-26.65-114.912-53.05-172.609-79.7a53.728,53.728,0,0,1,22.867-25.33c17.128-9.77,34.951-10.63,52.888-2.54,23.033,10.43,46.066,20.92,68.9,31.89C620.024,1100.16,632.3,1128.45,623.674,1156.24Zm-175.685-3.34c-15.37,18.85-34.594,33.05-55.859,44.51-32.045,17.26-66.546,26.94-102.437,32.24-0.727.09-1.406,0.22-3.153,0.54,5.062,4.76,9.306,9.18,13.993,13.11,8.8,7.34,17.7,14.48,26.846,21.33a9.7,9.7,0,0,0,7.142,1.46c18.4-3.9,35.343-10.97,49.659-23.84-1.3,6.42-13.148,22.56-29.666,40.48,10.137,5.22,20.428,9.86,29.977,15.61,12.379,7.48,24.311,5.67,36.629.57,20.789-8.62,38.69-21.72,55.883-36,2.792-2.33,5.488-4.71,8.77-7.52-2.864,10.75-16.992,34.17-39.366,65.6,5.98,1.49,11.716,3.11,17.507,4.26,10.618,2.09,21.291,3.74,31.86,5.82,3.475,0.68,5.283-.56,7.162-3.29,21.842-31.48,39.554-65.2,54.528-100.37,5.859-13.75,10.9-27.86,16.328-41.82,0.552-1.39,1.105-2.84,1.758-4.52,11.412,4.13,22.535,8.11,34.187,12.34-2.169,6.11-4.188,11.89-6.3,17.62-18.264,48.61-40.852,94.99-70.647,137.69-2.471,3.55-5.277,6.89-7.7,10.44-5.635,8.2-13.317,10.65-22.933,9.6a418.047,418.047,0,0,1-107.6-26.63c-63.1-24.74-117.2-62.04-159.71-115.28-5.088-6.37-6.487-13.4-2.994-20.76,3.344-7.11,9.681-10.26,17.376-10.25,32.959,0.03,64.844-6.11,95.689-17.34,27.926-10.1,53.489-24.31,73.319-47.06,5.757-6.6,10.462-14.08,15.892-21.51,9.984,5.8,20.208,11.75,31.535,18.35C459.642,1136.71,454.294,1145.2,447.989,1152.9Zm-174.532-6.22c-25.151-1.13-45.078-22.37-44.238-47.23,0.885-24.66,22.423-44.97,46.9-44.15,25.01,0.84,45.32,22.37,44.386,47.03C319.516,1127.53,298.076,1147.8,273.457,1146.68Zm11.895-127.78a18.217,18.217,0,1,1,18.4-17.79A18.56,18.56,0,0,1,285.352,1018.9Zm-82.261-1.11A27.655,27.655,0,0,1,176,990.022,27.366,27.366,0,1,1,203.091,1017.79Z"/>
  <path id="Shape_318_1" data-name="Shape 318 1" class="cls-2" d="M1973.55,1321.03q-15.63,25.35-38.6,25.34-13.26,0-21.07-10.07a36.14,36.14,0,0,1-7.46-17.74c-0.48.82-.97,1.64-1.42,2.35a95.873,95.873,0,0,1-9.35,12.2,38.047,38.047,0,0,1-29.6,13.26q-13.485,0-20.48-9.59a34.472,34.472,0,0,1-6.83-18.64q-14.955,28.2-25.72,28.23-9.24,0-13.97-3.79-1.665-1.65-1.66-11.84c0-6.54.48-17.35,1.44-32.32a41.247,41.247,0,0,1-23.69,6.97q-4.5,17.295-13.97,29.14t-23.21,11.84q-8.04,0-13.25-6.87c-4.86-6.16-7.66-14.77-8.48-25.74q-16.41,32.58-27.99,32.61-9.225,0-13.97-3.79-1.65-1.65-1.65-20.61t4.02-32.45a30.29,30.29,0,0,1-9.42-1.34q-1.38,11.715-14.25,32.85-15.63,25.35-38.6,25.34-13.26,0-21.07-10.07a36.276,36.276,0,0,1-7.81-22.85,88.438,88.438,0,0,1,2.08-19.94q-10.71,7.4-20.55,15.67a28.7,28.7,0,0,1,5.21,16.58,20.277,20.277,0,0,1-6.87,15.4q-6.87,6.39-17.52,6.4t-10.65-10.19q0-7.335,15.62-22.5-1.185-1.425-4.26-4.62t-4.61-5.09c-1.03-1.27-2.25-2.92-3.67-4.98a23.236,23.236,0,0,1-3.79-12.79q0-13.98,8.99-22.62t19.18-8.65q6.39,0,9.95,3.44c2.36,2.29,3.55,4.62,3.55,6.99,0,5.37-1.27,8.05-3.79,8.05-1.89,0-2.84-.63-2.84-1.9l0.47-3.55q0-4.26-4.85-4.26t-9.35,6.27q-4.5,6.285-4.5,10.31a33.619,33.619,0,0,0,.47,6.39,24.166,24.166,0,0,0,1.07,3.91,19.038,19.038,0,0,0,2.01,3.67c0.95,1.43,1.66,2.45,2.13,3.08l2.6,3.32a28.982,28.982,0,0,0,2.37,3.08c7.52-6.22,16.43-13.14,26.61-20.69a40.621,40.621,0,0,1,5.83-9.87q10.89-13.26,28.17-13.26,8.055,0,13.26,4.38t5.21,11.96q0,14.22-11.95,23.81-11.97,9.585-29.25,10.06a30.2,30.2,0,0,0,6.28,15.99q5.325,6.75,12.43,6.75a24.87,24.87,0,0,0,12.78-3.31,36.436,36.436,0,0,0,10.42-9.48,138.175,138.175,0,0,0,17.05-29.61c1-2.26,1.82-3.99,2.48-5.25a16.742,16.742,0,0,1-5.8-5.64,18.726,18.726,0,0,1-2.84-10.19,20.171,20.171,0,0,1,2.37-9.95q2.37-4.26,6.75-4.26t8.05,4.62a16.184,16.184,0,0,1,3.67,10.3,22.41,22.41,0,0,1-3.32,11.37,5.161,5.161,0,0,0,3.08.71l13.02-1.42a4.018,4.018,0,0,1,3.32,2.13,8,8,0,0,1,1.42,4.5c0,1.58-.52,6.96-1.54,16.11a205.355,205.355,0,0,0-1.54,21.68q0,7.935,1.42,7.93,4.02-.225,11.13-10.07a145.733,145.733,0,0,0,13.72-24.44c0.19-3.52.5-7.45,0.96-11.92q1.185-11.595,2.72-14.21c1.03-1.73,3.55-3.87,7.58-6.39s6.82-3.79,8.4-3.79q3.555,0,3.56,4.26,0,12.075-6.16,26.29a131.724,131.724,0,0,0,2.72,28.78q2.715,11.97,8.41,11.96,8.52,0,14.91-8.88a61.159,61.159,0,0,0,9.47-21.67,23.633,23.633,0,0,1-13.02-9.12,27.508,27.508,0,0,1-.12-29.97q4.38-6.39,12.67-6.39,4.965,0,7.58,6.28a36.547,36.547,0,0,1,2.6,14.09,104.108,104.108,0,0,1-1.18,15.63,20.139,20.139,0,0,0,7.57,1.42c5,0,9.83-1.9,14.52-5.64,0.85-11.88,1.61-18.38,2.29-19.46,0.79-1.27,3.24-3.63,7.34-7.11s7.3-5.21,9.59-5.21,3.44,3,3.44,9a61.96,61.96,0,0,1-1.31,9.24q-1.305,6.87-2.96,9.95-3.075,7.815-3.07,40.98,0,6.39,1.42,6.39,4.02-.225,11.12-10.07a137.2,137.2,0,0,0,12.18-21.13q2.265-17.46,10.91-27.9,11.715-14.085,29.71-14.09,7.575,0,11.96,3.91t4.38,8.88q0,9.24-3.31,13.74-3.33,4.5-8.05,4.5-4.035,0-4.03-4.5l1.89-12.08a7.553,7.553,0,0,0-1.65-4.74,5.176,5.176,0,0,0-4.26-2.13q-8.775,0-15.16,13.14-6.39,13.155-6.39,25.23t4.97,19.54q4.98,7.47,12.2,7.46a25.129,25.129,0,0,0,12.9-3.31,36.436,36.436,0,0,0,10.42-9.48,130.319,130.319,0,0,0,10.55-16.37c1.04-13.01,4.52-23.22,10.52-30.53q10.89-13.26,28.17-13.26,8.055,0,13.26,4.38t5.21,11.96q0,14.22-11.96,23.81t-29.24,10.06a30.2,30.2,0,0,0,6.28,15.99q5.325,6.75,12.43,6.75a24.87,24.87,0,0,0,12.78-3.31,36.436,36.436,0,0,0,10.42-9.48,138.175,138.175,0,0,0,17.05-29.61q1.89-4.26,2.96-6.15c0.71-1.27,1.5-1.9,2.37-1.9s1.3,0.63,1.3,1.9Q1987.99,1297.335,1973.55,1321.03Zm-417.18-1.66q-9.48,9.48-9.47,15.28t5.91,5.8a7.407,7.407,0,0,0,5.92-2.84Q1563.935,1330.5,1556.37,1319.37Zm65.93-22.74q6.51-6.63,6.52-17.29t-6.87-10.66q-8.295,0-13.97,11.49a61.455,61.455,0,0,0-6.16,25.46Q1615.8,1303.26,1622.3,1296.63Zm143.6-28.9q-1.89,0-1.89,7.82t7.1,14.92a34.13,34.13,0,0,0,.47-5.69Q1771.58,1267.725,1765.9,1267.73Zm176.98,28.9q6.51-6.63,6.52-17.29t-6.87-10.66q-8.295,0-13.97,11.49a61.455,61.455,0,0,0-6.16,25.46Q1936.38,1303.26,1942.88,1296.63Zm-132.23-52.35q-4.5,0-4.5-14.92c0-2.85,1.5-5.29,4.5-7.35s5.68-3.08,8.05-3.08q6.39,0,6.39,7.35a21.331,21.331,0,0,1-3.78,12.67A12.336,12.336,0,0,1,1810.65,1244.28Zm-347.57,102.09q-9.24,0-13.97-3.79-1.65-1.65-1.66-20.61t4.03-32.45a32.347,32.347,0,0,1-7.67-.87c-0.76,4.36-2.92,10.32-6.54,17.93q-18.7,39.8-31.49,39.79-9.225,0-13.97-3.79c-1.1-1.1-1.65-4.5-1.65-10.18s0.23-12,.71-18.95q-7.59,16.11-15.16,24.51t-16.92,8.41q-9.36,0-12.43-4.97-3.09-4.98-3.08-16.82l1.42-26.53c0-.94,0-1.84.01-2.73a92.032,92.032,0,0,1-13.51,6.52q-1.65,19.89-12.55,32.21t-31.01,12.32q-14.685,0-22.49-11.72t-7.82-27.48a50.927,50.927,0,0,1,.38-5.94c-5.33,7.07-12.29,16-20.98,26.9q-1.41,28.185-1.89,38.38-1.185,30.075-8.41,42.28t-25.68,12.2a25.886,25.886,0,0,1-15.04-4.86q-6.99-4.86-6.98-16.82t9.11-24.51q9.12-12.57,33.27-38.61l1.42-25.82q-8.055,17.76-15.87,26.88-7.8,9.12-17.28,9.12t-12.07-4.74q-2.61-4.725-2.61-17.05l1.42-26.53q0-25.35,2.37-27.71a94.018,94.018,0,0,1,8.4-6.99q6.045-4.62,8.77-4.62c1.81,0,2.95.32,3.43,0.95s0.71,1.89.71,3.79a51.629,51.629,0,0,1-4.5,20.6q-3.555,21.795-3.55,35.77t3.31,13.98q5.685,0,13.14-10.07t15.27-29.73q0.24-5.2.48-11.01,0.225-5.8.47-8.53c0.16-1.81.28-3.12,0.36-3.91s2.25-2.96,6.51-6.51,7.53-5.33,9.82-5.33,3.44,3,3.44,9a61.96,61.96,0,0,1-1.31,9.24,36.912,36.912,0,0,1-2.95,9.95q-1.9,16.815-2.61,29.37,21.675-27.45,24.44-30.69a60.1,60.1,0,0,1,4.56-8.16q9.36-13.965,24.04-13.97a26.315,26.315,0,0,1,15.74-4.74q9.12,0,16.93,9.71t8.05,25.35q9.465-3.075,13.14-5.33c0.09-.06.14-0.09,0.23-0.14,0.26-10.73,1.01-16.74,2.26-17.98a92.548,92.548,0,0,1,8.4-6.99c4.03-3.08,6.94-4.62,8.76-4.62s2.96,0.32,3.43.95,0.71,1.89.71,3.79a51.783,51.783,0,0,1-4.49,20.6q-3.555,21.795-3.56,35.77t4.5,13.98q5.445,0,12.79-9.48,7.335-9.465,14.68-28.19,2.13-23.67,3.43-25.58a59.288,59.288,0,0,1,6.51-6.87q5.2-4.965,8.64-4.97t3.44,9a61.96,61.96,0,0,1-1.31,9.24,36.912,36.912,0,0,1-2.95,9.95q-2.61,6.63-2.61,40.98,0,6.39,1.42,6.39,4.02-.225,11.13-10.07a148.046,148.046,0,0,0,14.09-25.22c2.37-5.24,4.27-9.12,5.7-11.69a16.9,16.9,0,0,1-7.48-6.55,18.726,18.726,0,0,1-2.84-10.19,20.171,20.171,0,0,1,2.37-9.95q2.355-4.26,6.75-4.26,4.365,0,8.05,4.62a16.184,16.184,0,0,1,3.67,10.3,22.41,22.41,0,0,1-3.32,11.37,5.161,5.161,0,0,0,3.08.71l13.02-1.42a4.031,4.031,0,0,1,3.32,2.13,8.08,8.08,0,0,1,1.42,4.5c0,1.58-.52,6.96-1.54,16.11a205.355,205.355,0,0,0-1.54,21.68q0,7.935,1.42,7.93,4.02-.225,11.13-10.07a147.39,147.39,0,0,0,14.08-25.22q6.99-15.4,8.53-15.4c1.02,0,1.54.63,1.54,1.9q0,6.63-6.87,21.08Q1475.865,1346.375,1463.08,1346.37Zm-269.67,47.61q0,8.055,2.84,13.27t7.81,5.21q7.575,0,10.65-8.29t4.5-33.64l1.19-23.21Q1193.4,1376.45,1193.41,1393.98Zm95.65-94.15q-7.575-6.525-7.58-14.33a32.144,32.144,0,0,1,2.61-13.51q-10.185,8.055-10.18,31.74a51.285,51.285,0,0,0,4.73,21.68q4.74,10.3,14.92,10.3a17.973,17.973,0,0,0,15.86-8.64q5.685-8.655,6.63-21.2l-8.52.47A27.352,27.352,0,0,1,1289.06,1299.83Zm23.32-23.81q-3.435-9.465-11.01-9.47a6.622,6.622,0,0,0-5.92,3.43,13.9,13.9,0,0,0-2.13,7.46,18.212,18.212,0,0,0,6.04,14.21,20.326,20.326,0,0,0,14.09,5.45h2.84A70.154,70.154,0,0,0,1312.38,1276.02Zm-210.48,70.35q-12.915,0-15.16-3.08t-2.25-20.37q0-4.26.21-9.47-16.515,32.88-28.14,32.92-9.24,0-13.97-3.79c-1.11-1.1-1.66-3.91-1.66-8.41s0.15-10.54.47-18.12q-6.15,15.4-12.19,22.86a19.085,19.085,0,0,1-15.51,7.46q-9.465,0-16.572-8.88t-7.1-27.95a55.585,55.585,0,0,1,10.775-33.76q10.77-14.685,28.29-14.68,7.575,0,17.05,9.95a33.5,33.5,0,0,1,6.75-6.28q4.845-3.675,8.28-3.67t3.44,9a61.96,61.96,0,0,1-1.31,9.24q-1.3,6.87-2.96,9.95-2.13,5.445-2.13,38.61c0,4.26.48,6.39,1.42,6.39q4.035-.225,11.13-10.07a147.365,147.365,0,0,0,14.09-25.22c0.28-.62.53-1.16,0.8-1.74,0.53-7.24,1.25-15.32,2.16-24.32q-11.835-2.37-12.55-9.71c0-2.52,1.66-3.79,4.97-3.79a19.344,19.344,0,0,1,8.76,1.89q2.13-17.055,4.97-34.58a16.231,16.231,0,0,1,4.5-8.53q3.8-4.02,7.34-4.02,3.075,0,3.08,9.71,0,4.5-3.31,41.45a60.271,60.271,0,0,0,14.08-4.74q7.695-3.54,9.12-3.55,4.26,0,4.26,2.61,0.24,2.37-8.76,6.51a88.95,88.95,0,0,1-19.41,6.28q-2.85,34.59-2.85,52.35,0,9.465,2.85,9.47,4.26-.225,11.36-9.95,7.11-9.705,14.09-25.22t8.52-15.52c1.03,0,1.54.63,1.54,1.9q0,6.63-6.87,21.08Q1114.8,1346.375,1101.9,1346.37Zm-64.88-72.36q-5.325-3.435-9.35-3.44-6.63,0-14.09,9.83a37.177,37.177,0,0,0-7.46,23.1q0,13.26,3.91,21.79t10.3,8.53q7.815,0,22.97-39.09,0.225-1.89.59-6.51c0.24-3.08.43-5.41,0.59-6.99Q1042.35,1277.45,1037.02,1274.01ZM705.965,1130.3C809.582,988.458,811.4,828.342,794.9,719.968,894.243,908.8,835.3,1248.08,835.3,1248.08,820.893,1211.73,792.832,1178.98,705.965,1130.3ZM580.685,513.124S602.8,330.243,644.421,272c0,0-73.245,73.992-98.21,232.051,0,0-44.751-164.472-12.883-238.308C583.926,148.514,653.912,79.6,709.936,142.718,765.959,205.791,772.05,405.261,580.685,513.124ZM417.884,495.6c37.4,3.033,77.412,11.778,117.3,25.623-40.513,252.35-206,295.435-280.549,301.815-15.824-37.278-23.589-74.4-26.831-107.763a209.137,209.137,0,0,1-40.625-.279C72.292,702.9-10.949,600.029,1.2,485.238A209.015,209.015,0,0,1,110.81,322.788C68.832,195.274,87.512,126.747,104.52,101,123.171,72.775,166.265,79,116.966,152.282c-28.04,41.659-13.087,112.1,5.045,165.18a207.741,207.741,0,0,1,79.156-18.932C208.972,110.215,267.565,32.4,301.605,8.9c35.788-24.669,84.147,3.414-9.833,67.073-59.4,40.216-72.642,148.4-74.35,222.574,4.618,0.182,9.2.255,13.855,0.757C334.843,310.2,412.453,394.91,417.884,495.6ZM212.115,379.874a37.4,37.4,0,1,0,37.426,37.4A37.413,37.413,0,0,0,212.115,379.874ZM570.387,534.669a577.917,577.917,0,0,1,69.089,34.737C638.7,857.237,485.871,963.72,420.749,995.932c-39.137-20.362-70.854-43.86-96.2-69.248C535.214,877.732,566.914,639.637,570.387,534.669Z"/>
</svg>
